<?xml version="1.0" encoding="UTF-8"?>
<svg id="Layer_2" data-name="Layer 2" xmlns="http://www.w3.org/2000/svg" viewBox="0 0 350.56 83.33">
  <defs>
    <style>
      .cls-1 {
        fill: #fff;
      }
    </style>
  </defs>
  <g id="Layer_1-2" data-name="Layer 1">
    <g>
      <path class="cls-1" d="M116.45,62.71c2.93,1.82,5.4,1.61,7.13.98-5.12-2.5-7.72-6.72-7.69-7.49,3.61,1.39,4.82.96,6.68.76-2.72-2.65-6.94-6.31-8.17-7.94,2.6,1.51,4.91.74,6.36,1-4.2-2.67-6.59-6.14-6.59-8.01,1.24.75,2.9,1.31,4.2,1.22-4.56-3.7-6.3-12.09-6.3-12.09,0,0-1.73,8.39-6.3,12.09,1.29.09,2.95-.47,4.2-1.22,0,1.87-2.4,5.34-6.59,8.01,1.45-.26,3.76.51,6.36-1-1.23,1.63-5.44,5.29-8.17,7.94,1.86.2,3.07.63,6.68-.76.02.77-2.57,4.99-7.69,7.49,1.72.62,4.2.84,7.13-.98-1.2,2.11-1.7,3.67-8.69,8.64,4.34.79,11-.58,11.73-1.3v10.92l-13.94-8.16v-13.38c.68.67,4.49.64,8.51-.09-5.87-2.7-5.79-4.95-6.91-6.9,1.25.66,4.74.54,6.34-.04-4.74-2.31-6.86-6.56-6.84-7.27,1.85.77,4.97.64,6.35-.35-3.96-1.45-6.31-3.3-7.36-5.72,2.35.94,4.55.23,5.8-.68-4.22-1.47-6.02-5.03-6.02-6.76,1.15.69,2.69,1.07,3.88.98-4.23-3.43-5.83-10.11-5.83-10.11,0,0-1.61,6.68-5.83,10.11,1.2.09,2.73-.29,3.88-.98,0,1.55-1.44,4.55-4.76,6.22-4.95-2.99-7.47-7.15-7.44-7.97,4.3,1.66,5.75,1.15,7.96.91-3.24-3.16-8.27-7.52-9.73-9.47,3.09,1.8,5.85.89,7.58,1.19-5-3.18-7.86-7.32-7.86-9.55,1.48.89,3.46,1.56,5,1.45-5.44-4.41-7.51-14.41-7.51-14.41,0,0-2.07,10-7.51,14.41,1.54.11,3.52-.56,5-1.45,0,2.23-2.86,6.37-7.86,9.55,1.72-.31,4.48.61,7.58-1.19-1.46,1.94-6.49,6.31-9.73,9.47,2.21.24,3.66.75,7.96-.91.03.92-3.07,5.95-9.17,8.92,2.05.74,5.01,1,8.5-1.17-1.44,2.52-2.03,4.38-10.35,10.3,5.18.94,13.11-.69,13.98-1.55v13.34l-17.74-10.38h0s-.01-8.44-.01-9.15c2.64.68,6.32.51,7.7.36-3.71-2.36-5.01-4.62-6.18-6.17,2.07,1.08,3.92.93,5.29.68-3.5-2.63-5.3-5.16-5.65-6.72,1.18.71,2.15.35,3.37.26-4.05-3.29-5.76-10.46-5.96-11.39v-.1s0,.02-.01.05c0-.03-.01-.05-.01-.05v.1c-.21.93-1.91,8.1-5.96,11.39,1.23.09,2.19.45,3.37-.26-.35,1.56-2.15,4.09-5.65,6.72,1.37.25,3.22.4,5.3-.68-1.17,1.55-2.47,3.82-6.18,6.17,1.38.15,5.06.32,7.7-.36,0,.51,0,4.96-.01,7.46l-18.76-10.98h0s0,0,0,0h0s0,0,0,0L0,57.12v26.18h5.87v-22.73l29.11-17.04,67.95,39.77h11.76l-1.28-.75v-12.5c.73.72,7.39,2.09,11.73,1.3-6.99-4.96-7.48-6.53-8.69-8.64ZM88.31,39.18c1.19.4,2.67.5,4.22-.12-.91,2.1-2.81,3.77-5.87,5.12-3.76-3.15-4.36-4.67-5.44-6.56,2.76,1.72,5.18,1.92,7.09,1.56ZM90.57,47.2c-.77-.56-1.48-1.09-2.11-1.58,1.09.02,2.21-.13,3.06-.49,0,.27-.3,1.06-.94,2.06ZM77.59,46.37c.78.77,7.27,2.16,12.33,1.75-1.12,1.45-2.85,3.12-5.24,4.29,1.6.58,5.09.7,6.34.04-1.11,1.96-1.04,4.2-6.91,6.9,4.02.73,7.83.75,8.51.09v10.94l-15.02-8.79v-15.22Z"/>
      <path class="cls-1" d="M35.12,48.82h0s0,0,0,0h0s-23.24,13.61-23.24,13.61v20.87h5.87v-17.42l17.38-10.17,47.15,27.6c3.66.05,11.76,0,11.76,0l-58.91-34.48h0Z"/>
      <polygon class="cls-1" points="148.06 48.95 158.08 48.95 158.08 46.09 148.06 46.09 148.06 40.23 158.6 40.23 158.6 37.23 144.98 37.23 144.98 56.46 148.06 56.46 148.06 48.95"/>
      <path class="cls-1" d="M183.48,46.91c0-5.2-3.22-10.05-9.8-10.07-5.81,0-9.91,4.24-9.91,10.1,0,5.06,3.16,9.94,9.85,9.94s9.85-4.76,9.85-9.96ZM166.83,46.97c0-4.21,2.39-7.32,6.85-7.32,4.71.08,6.74,3.77,6.74,7.32s-2.01,7.07-6.8,7.07-6.74-3.66-6.8-7.07Z"/>
      <path class="cls-1" d="M206.19,55.91l-5.75-6.41c3.8-.55,5.23-3.25,5.23-6,0-3.25-2.34-6.3-6.8-6.3-3,0-5.97-.03-8.97-.03v19.29h3.08v-6.66h4.07l5.86,6.66h3.61l-.33-.55ZM192.98,47v-6.99h5.89c2.53,0,3.66,1.82,3.66,3.55s-1.13,3.44-3.69,3.44h-5.86Z"/>
      <path class="cls-1" d="M226.72,53.44h-11.15v-5.17h10.62v-2.86h-10.62v-5.2h11.06v-3h-14.15v19.26h14.23v-3.03Z"/>
      <path class="cls-1" d="M240.18,54.15c-2.23,0-4.62-.83-6-3.16l-2.31,1.54c1.76,3.25,4.6,4.38,8.28,4.38,4.02,0,7.95-1.62,7.98-5.94,0-4.32-3.77-5.42-7.73-5.97-2.53-.36-4.68-.88-4.68-2.75s1.87-2.92,4.46-2.92c2.01.03,3.85.83,4.76,2.15l2.34-1.57c-1.62-2.59-4.4-3.25-7.18-3.25-3.47,0-7.46,1.54-7.43,5.53,0,4.13,3.63,5.09,7.46,5.61,2.7.36,4.93,1.07,4.93,3.17,0,2.42-2.56,3.19-4.87,3.19Z"/>
      <path class="cls-1" d="M261.84,56.46v-16.49h6.3v-2.78h-15.74v2.78h6.33v16.49h3.11Z"/>
      <polygon class="cls-1" points="295.88 45.59 285.7 45.59 285.7 37.2 282.62 37.2 282.62 56.46 285.7 56.46 285.7 48.45 295.88 48.45 295.88 56.46 298.94 56.46 298.94 37.2 295.88 37.2 295.88 45.59"/>
      <rect class="cls-1" x="306.53" y="37.2" width="3.05" height="19.26"/>
      <polygon class="cls-1" points="330.42 53.6 320.27 53.6 320.27 37.2 317.18 37.2 317.18 56.46 330.42 56.46 330.42 53.6"/>
      <polygon class="cls-1" points="349.33 53.6 339.17 53.6 339.17 37.2 336.09 37.2 336.09 56.46 349.33 56.46 349.33 53.6"/>
      <path class="cls-1" d="M152.7,66.96l-7.32,16.32h2.77l1.54-3.43h8.84l1.56,3.43h2.77l-7.32-16.32h-2.84ZM150.67,77.47l3.45-7.77,3.45,7.77h-6.9Z"/>
      <path class="cls-1" d="M175.02,66.94c-2.5,0-5.06.02-7.56.02v16.32h2.61v-5.01h4.94c7.81-.05,7.79-11.33,0-11.33ZM175.02,75.87h-4.94v-6.53h4.94c4.29,0,4.31,6.53,0,6.53Z"/>
      <path class="cls-1" d="M190.22,66.96l-7.32,16.32h2.77l1.54-3.43h8.84l1.56,3.43h2.77l-7.32-16.32h-2.84ZM188.19,77.47l3.45-7.77,3.45,7.77h-6.9Z"/>
      <path class="cls-1" d="M213.91,77.38c3.22-.47,4.43-2.75,4.43-5.08,0-2.75-1.98-5.34-5.76-5.34-2.54,0-5.06-.02-7.6-.02v16.35h2.61v-5.64h3.45l4.97,5.64h3.05l-.28-.47-4.87-5.43ZM207.59,75.26v-5.92h4.99c2.15,0,3.1,1.54,3.1,3.01s-.96,2.91-3.12,2.91h-4.97Z"/>
      <path class="cls-1" d="M222.19,69.31h5.36v13.97h2.63v-13.97h5.34v-2.36h-13.34v2.36Z"/>
      <path class="cls-1" d="M244.32,66.96l-7.32,16.32h2.77l1.54-3.43h8.84l1.56,3.43h2.77l-7.32-16.32h-2.84ZM242.29,77.47l3.45-7.77,3.45,7.77h-6.9Z"/>
      <path class="cls-1" d="M267.5,74.63l-5.39-7.65h-3.03v16.32h2.61v-12.52l5.48,7.72h.56l5.55-7.72v12.52h2.61v-16.32h-3.03l-5.36,7.65Z"/>
      <path class="cls-1" d="M284.94,76.33h9v-2.43h-9v-4.41h9.37v-2.54h-11.99v16.32h12.06v-2.57h-9.44v-4.38Z"/>
      <polygon class="cls-1" points="311.33 78.57 302.08 66.96 300.07 66.96 300.07 83.28 302.71 83.28 302.71 71.76 311.96 83.28 313.95 83.28 313.95 66.96 311.33 66.96 311.33 78.57"/>
      <path class="cls-1" d="M318.73,69.31h5.36v13.97h2.63v-13.97h5.34v-2.36h-13.34v2.36Z"/>
      <polygon class="cls-1" points="347.41 66.96 342.77 74.16 338.27 66.96 335.17 66.96 335.17 67.07 341.46 76.59 341.46 83.28 344.07 83.28 344.07 76.59 350.56 67.07 350.56 66.96 347.41 66.96"/>
    </g>
  </g>
</svg>